<svg width="48" height="48" viewBox="0 0 48 48" fill="none" xmlns="http://www.w3.org/2000/svg">
<path d="M24 48C27.3112 48 29.9972 45.3141 29.9972 42H18.0028C18.0028 45.3141 20.6887 48 24 48ZM44.1928 33.9647C42.3816 32.0184 38.9925 29.0906 38.9925 19.5C38.9925 12.2156 33.885 6.38438 26.9981 4.95375V3C26.9981 1.34344 25.6556 0 24 0C22.3444 0 21.0019 1.34344 21.0019 3V4.95375C14.115 6.38438 9.0075 12.2156 9.0075 19.5C9.0075 29.0906 5.61844 32.0184 3.80719 33.9647C3.24469 34.5694 2.99531 35.2922 3 36C3.01031 37.5375 4.21687 39 6.00937 39H41.9906C43.7831 39 44.9906 37.5375 45 36C45.0047 35.2922 44.7553 34.5684 44.1928 33.9647V33.9647Z" fill="#919191"/>
</svg>
