<svg width="48" height="48" viewBox="0 0 48 48" fill="none" xmlns="http://www.w3.org/2000/svg"><path d="M43.875 45H42V2.25C42 1.00734 40.9927 0 39.75 0H8.25C7.00734 0 6 1.00734 6 2.25V45H4.125C3.50372 45 3 45.5037 3 46.125V48H45V46.125C45 45.5037 44.4963 45 43.875 45ZM15 7.125C15 6.50372 15.5037 6 16.125 6H19.875C20.4963 6 21 6.50372 21 7.125V10.875C21 11.4963 20.4963 12 19.875 12H16.125C15.5037 12 15 11.4963 15 10.875V7.125ZM15 16.125C15 15.5037 15.5037 15 16.125 15H19.875C20.4963 15 21 15.5037 21 16.125V19.875C21 20.4963 20.4963 21 19.875 21H16.125C15.5037 21 15 20.4963 15 19.875V16.125ZM19.875 30H16.125C15.5037 30 15 29.4963 15 28.875V25.125C15 24.5037 15.5037 24 16.125 24H19.875C20.4963 24 21 24.5037 21 25.125V28.875C21 29.4963 20.4963 30 19.875 30ZM27 45H21V37.125C21 36.5037 21.5037 36 22.125 36H25.875C26.4963 36 27 36.5037 27 37.125V45ZM33 28.875C33 29.4963 32.4963 30 31.875 30H28.125C27.5037 30 27 29.4963 27 28.875V25.125C27 24.5037 27.5037 24 28.125 24H31.875C32.4963 24 33 24.5037 33 25.125V28.875ZM33 19.875C33 20.4963 32.4963 21 31.875 21H28.125C27.5037 21 27 20.4963 27 19.875V16.125C27 15.5037 27.5037 15 28.125 15H31.875C32.4963 15 33 15.5037 33 16.125V19.875ZM33 10.875C33 11.4963 32.4963 12 31.875 12H28.125C27.5037 12 27 11.4963 27 10.875V7.125C27 6.50372 27.5037 6 28.125 6H31.875C32.4963 6 33 6.50372 33 7.125V10.875Z" fill="#919191"/></svg>
