<svg width="48" height="48" viewBox="0 0 48 48" fill="none" xmlns="http://www.w3.org/2000/svg">
<path fill-rule="evenodd" clip-rule="evenodd" d="M0 42V37.9969C3.87187 40.725 10.95 42 18 42C25.05 42 32.1281 40.725 36 37.9969V42C36 45.3094 27.9375 48 18 48C8.0625 48 0 45.3094 0 42ZM0 33V28.1625C3.87187 31.35 10.9594 33 18 33C25.0406 33 32.1281 31.35 36 28.1625V33C36 36.3094 27.9375 39 18 39C8.0625 39 0 36.3094 0 33ZM0 22.5C0 18.3563 8.0625 15 18 15C27.9375 15 36 18.3563 36 22.5C36 26.6437 27.9375 30 18 30C8.0625 30 0 26.6437 0 22.5Z" fill="#919191"/>
<path d="M48 6C48 9.30937 39.9375 12 30 12C20.0625 12 12 9.30937 12 6C12 2.69063 20.0625 0 30 0C39.9375 0 48 2.69063 48 6Z" fill="#1E9272"/>
<path d="M48 24C48 26.2219 44.3719 28.1531 39 29.1937V23.2313C42.6281 22.5844 45.825 21.5344 48 19.9969V24Z" fill="#1E9272"/>
<path d="M48 15C48 17.2781 44.1844 19.2656 38.5594 20.2781C37.7344 18.0563 35.7 16.2563 32.9344 14.9156C38.9531 14.6156 44.6719 13.35 48 10.9969V15Z" fill="#1E9272"/>
</svg>
