<svg width="48" height="48" viewBox="0 0 48 48" fill="none" xmlns="http://www.w3.org/2000/svg">
<g clip-path="url(#clip0_41_134)">
<path fill-rule="evenodd" clip-rule="evenodd" d="M8 27.6758L23.3642 15.0217C23.5448 14.8761 23.7697 14.7967 24.0017 14.7967C24.2336 14.7967 24.4586 14.8761 24.6392 15.0217L40 27.6667V41.3333C40 41.687 39.8595 42.0261 39.6095 42.2761C39.3594 42.5262 39.0203 42.6667 38.6667 42.6667L29.3317 42.6408C29.1562 42.6408 28.9825 42.6062 28.8205 42.5389C28.6584 42.4717 28.5112 42.3731 28.3874 42.2488C28.2635 42.1246 28.1654 41.9771 28.0986 41.8149C28.0319 41.6526 27.9978 41.4788 27.9983 41.3033V33.3333C27.9983 32.9797 27.8579 32.6406 27.6078 32.3905C27.3578 32.1405 27.0186 32 26.665 32H21.3317C20.978 32 20.6389 32.1405 20.3889 32.3905C20.1388 32.6406 19.9983 32.9797 19.9983 33.3333V41.3092C19.9983 41.6616 19.8588 41.9998 19.6102 42.2496C19.3616 42.4995 19.0241 42.6407 18.6717 42.6425L9.33333 42.6667C8.97971 42.6667 8.64057 42.5262 8.39052 42.2761C8.14048 42.0261 8 41.687 8 41.3333V27.6758Z" fill="#919191"/>
<path d="M40.6667 17.88L47.6333 23.6225C47.7356 23.7056 47.8204 23.8081 47.8829 23.9241C47.9453 24.0401 47.9843 24.1674 47.9974 24.2985C48.0106 24.4296 47.9977 24.562 47.9596 24.6881C47.9214 24.8142 47.8587 24.9315 47.775 25.0333L45.65 27.6167C45.5663 27.7179 45.4635 27.8017 45.3474 27.8632C45.2313 27.9247 45.1042 27.9627 44.9735 27.9751C44.8427 27.9875 44.7107 27.974 44.5852 27.9354C44.4596 27.8967 44.3429 27.8337 44.2417 27.75L24.6392 11.605C24.4586 11.4594 24.2336 11.3801 24.0017 11.3801C23.7697 11.3801 23.5448 11.4594 23.3642 11.605L3.7625 27.75C3.66111 27.8337 3.5442 27.8967 3.41847 27.9352C3.29273 27.9737 3.16064 27.987 3.02974 27.9744C2.89885 27.9617 2.77173 27.9234 2.65567 27.8616C2.5396 27.7998 2.43686 27.7157 2.35333 27.6142L0.228335 25.0308C0.14458 24.9296 0.081589 24.8129 0.0429602 24.6873C0.00433142 24.5618 -0.00917777 24.4298 0.0032044 24.299C0.0155866 24.1682 0.0536176 24.0412 0.115124 23.9251C0.176631 23.809 0.260408 23.7062 0.361668 23.6225L21.4558 6.24999C22.1718 5.66081 23.0703 5.33867 23.9975 5.33867C24.9247 5.33867 25.8232 5.66081 26.5392 6.24999L34 12.3883V6.33749C34 6.07228 34.1054 5.81792 34.2929 5.63039C34.4804 5.44285 34.7348 5.33749 35 5.33749H39.6667C39.9319 5.33749 40.1862 5.44285 40.3738 5.63039C40.5613 5.81792 40.6667 6.07228 40.6667 6.33749V17.88Z" fill="#1E9272"/>
</g>
<defs>
<clipPath id="clip0_41_134">
<rect width="48" height="48" fill="white"/>
</clipPath>
</defs>
</svg>
