<svg width="48" height="48" viewBox="0 0 48 48" fill="none" xmlns="http://www.w3.org/2000/svg">
<g clip-path="url(#clip0_36_60)">
<path fill-rule="evenodd" clip-rule="evenodd" d="M4.5 19.5C3.60999 19.5 2.73996 19.7639 1.99994 20.2584C1.25991 20.7529 0.683138 21.4557 0.342544 22.2779C0.00194979 23.1002 -0.0871652 24.005 0.0864683 24.8779C0.260102 25.7508 0.688685 26.5526 1.31802 27.182C1.94736 27.8113 2.74918 28.2399 3.6221 28.4135C4.49501 28.5872 5.39981 28.4981 6.22208 28.1575C7.04434 27.8169 7.74715 27.2401 8.24162 26.5001C8.73608 25.76 9 24.89 9 24C9 22.8065 8.5259 21.6619 7.68198 20.818C6.83807 19.9741 5.69348 19.5 4.5 19.5ZM4.5 34.5C3.60999 34.5 2.73996 34.7639 1.99994 35.2584C1.25991 35.7529 0.683138 36.4557 0.342544 37.2779C0.00194979 38.1002 -0.0871652 39.005 0.0864683 39.8779C0.260102 40.7508 0.688685 41.5526 1.31802 42.182C1.94736 42.8113 2.74918 43.2399 3.6221 43.4135C4.49501 43.5872 5.39981 43.4981 6.22208 43.1575C7.04434 42.8169 7.74715 42.2401 8.24162 41.5001C8.73608 40.76 9 39.89 9 39C9 37.8065 8.5259 36.6619 7.68198 35.818C6.83807 34.9741 5.69348 34.5 4.5 34.5ZM46.5 36H16.5C16.1022 36 15.7206 36.158 15.4393 36.4393C15.158 36.7206 15 37.1022 15 37.5V40.5C15 40.8978 15.158 41.2794 15.4393 41.5607C15.7206 41.842 16.1022 42 16.5 42H46.5C46.8978 42 47.2794 41.842 47.5607 41.5607C47.842 41.2794 48 40.8978 48 40.5V37.5C48 37.1022 47.842 36.7206 47.5607 36.4393C47.2794 36.158 46.8978 36 46.5 36ZM46.5 21H16.5C16.1022 21 15.7206 21.158 15.4393 21.4393C15.158 21.7206 15 22.1022 15 22.5V25.5C15 25.8978 15.158 26.2794 15.4393 26.5607C15.7206 26.842 16.1022 27 16.5 27H46.5C46.8978 27 47.2794 26.842 47.5607 26.5607C47.842 26.2794 48 25.8978 48 25.5V22.5C48 22.1022 47.842 21.7206 47.5607 21.4393C47.2794 21.158 46.8978 21 46.5 21Z" fill="#919191"/>
<path d="M1.99994 5.25839C2.73996 4.76392 3.60999 4.5 4.5 4.5C5.69348 4.5 6.83807 4.97411 7.68198 5.81802C8.5259 6.66193 9 7.80653 9 9C9 9.89002 8.73608 10.76 8.24162 11.5001C7.74715 12.2401 7.04434 12.8169 6.22208 13.1575C5.39981 13.4981 4.49501 13.5872 3.6221 13.4135C2.74918 13.2399 1.94736 12.8113 1.31802 12.182C0.688685 11.5526 0.260102 10.7508 0.0864683 9.87791C-0.0871652 9.00499 0.00194979 8.10019 0.342544 7.27792C0.683138 6.45566 1.25991 5.75285 1.99994 5.25839Z" fill="#1E9272"/>
<path d="M16.5 6H46.5C46.8978 6 47.2794 6.15804 47.5607 6.43934C47.842 6.72065 48 7.10218 48 7.5V10.5C48 10.8978 47.842 11.2794 47.5607 11.5607C47.2794 11.842 46.8978 12 46.5 12H16.5C16.1022 12 15.7206 11.842 15.4393 11.5607C15.158 11.2794 15 10.8978 15 10.5V7.5C15 7.10218 15.158 6.72065 15.4393 6.43934C15.7206 6.15804 16.1022 6 16.5 6Z" fill="#1E9272"/>
</g>
<defs>
<clipPath id="clip0_36_60">
<rect width="48" height="48" fill="white"/>
</clipPath>
</defs>
</svg>
